# xmcd
# 
# Track frame offsets:
#     150
#     15613
#     34734
#     49985
#     68842
#     86899
#     103145
#     116244
#     139168
#     160106
#     180557
# 
# Disc length: 2788
# 
# Revision: 2
# Processed by: cddbd v1.5.2PL0 Copyright (c) Steve Scherf et al.
# Submitted via: BonkEnc v1.0.6
# 
DISCID=980ae20b
DTITLE=Tûzkerék - Éjfélkor megszólal egy blues XT
DYEAR=0
DGENRE=
TTITLE0=Foxy Lady (Jimi Hendrix)
TTITLE1=A szél kiállt: Mary! (The Wind Cries: Mary!: Jimi Hendrix)
TTITLE2=Vörös Ház /Gyors vátlozat/ (Red House: Jimi Hendrix)
TTITLE3=Hej! R.B. tûzgitáros (Hej Joe!: Jimi Hendrix)
TTITLE4=Tobacco Road (Loudermilk)
TTITLE5=Bíbor köd (Purple Haze: Jimi Hendrix)
TTITLE6=Kicsi szárny (Little Wing: Jimi Hendrix)
TTITLE7=A Felkelõ Nap Háza (House Of The Rising Sun: Animals)
TTITLE8=Vadnak születtem (Born To Be Wilde: Bonefire)
TTITLE9=Éjfélkor megszólal egy blues
TTITLE10=Vörös Ház /Lassú vátlozat/ (Red House: Jimi Hendrix)
EXTD=
EXTT0=
EXTT1=
EXTT2=
EXTT3=
EXTT4=
EXTT5=
EXTT6=
EXTT7=
EXTT8=
EXTT9=
EXTT10=
PLAYORDER=
